<svg width="45" height="45" viewBox="0 0 45 45" fill="none" xmlns="http://www.w3.org/2000/svg">
<circle cx="22.5" cy="22.5" r="22.5" transform="rotate(-180 22.5 22.5)" fill="#1C1A1A"/>
<path d="M19.6693 14.4574C19.9775 14.7623 20.1255 15.1308 20.1131 15.5628C20.0998 15.9948 19.939 16.3632 19.6308 16.6682L15.2777 20.9753L32.4591 20.9753C32.8957 20.9753 33.2619 21.1217 33.5578 21.4144C33.8526 21.7062 34 22.068 34 22.5C34 22.932 33.8526 23.2944 33.5578 23.5871C33.2619 23.8788 32.8957 24.0247 32.4591 24.0247L15.2777 24.0247L19.6693 28.37C19.9775 28.6749 20.1316 29.0372 20.1316 29.457C20.1316 29.8758 19.9775 30.2377 19.6693 30.5426C19.3612 30.8475 18.9949 31 18.5707 31C18.1474 31 17.7817 30.8475 17.4735 30.5426L10.4238 23.5673C10.2697 23.4148 10.1603 23.2496 10.0955 23.0717C10.0318 22.8939 10 22.7033 10 22.5C10 22.2967 10.0318 22.1061 10.0955 21.9283C10.1603 21.7504 10.2697 21.5852 10.4238 21.4327L17.512 14.4193C17.7945 14.1398 18.1474 14 18.5707 14C18.9949 14 19.3612 14.1525 19.6693 14.4574Z" fill="#F5F5F5"/>
</svg>
