<svg width="45" height="45" viewBox="0 0 45 45" fill="none" xmlns="http://www.w3.org/2000/svg">
<circle cx="22.5" cy="22.5" r="22.5" fill="#1C1A1A"/>
<path d="M25.3307 30.5426C25.0225 30.2377 24.8745 29.8692 24.8869 29.4372C24.9002 29.0052 25.061 28.6368 25.3692 28.3318L29.7223 24.0247H12.5409C12.1043 24.0247 11.7381 23.8783 11.4422 23.5856C11.1474 23.2938 11 22.932 11 22.5C11 22.068 11.1474 21.7056 11.4422 21.4129C11.7381 21.1212 12.1043 20.9753 12.5409 20.9753H29.7223L25.3307 16.63C25.0225 16.3251 24.8684 15.9627 24.8684 15.543C24.8684 15.1242 25.0225 14.7623 25.3307 14.4574C25.6388 14.1525 26.0051 14 26.4293 14C26.8526 14 27.2183 14.1525 27.5265 14.4574L34.5762 21.4327C34.7303 21.5852 34.8397 21.7504 34.9045 21.9283C34.9682 22.1061 35 22.2967 35 22.5C35 22.7033 34.9682 22.8939 34.9045 23.0717C34.8397 23.2496 34.7303 23.4148 34.5762 23.5673L27.488 30.5807C27.2055 30.8602 26.8526 31 26.4293 31C26.0051 31 25.6388 30.8475 25.3307 30.5426Z" fill="#F5F5F5"/>
</svg>
